<svg xmlns="http://www.w3.org/2000/svg" width="1400" height="640" viewBox="0 0 1400 640" fill="none">
  <rect width="1400" height="640" fill="#07131D"/>
  <text x="70" y="88" fill="#F3EFE5" font-family="Avenir Next, Arial" font-size="42" font-weight="700">PocketSignal architecture</text>
  <rect x="70" y="150" width="220" height="120" rx="24" fill="#0B1B26" stroke="#3A5060"/>
  <text x="105" y="205" fill="#F5EFD8" font-family="Avenir Next, Arial" font-size="28" font-weight="700">IEEE-CIS data</text>
  <text x="105" y="240" fill="#D1D5DB" font-family="Avenir Next, Arial" font-size="20">transaction + identity</text>
  <rect x="350" y="150" width="250" height="120" rx="24" fill="#0B1B26" stroke="#3A5060"/>
  <text x="385" y="205" fill="#F5EFD8" font-family="Avenir Next, Arial" font-size="28" font-weight="700">Feature engineering</text>
  <text x="385" y="240" fill="#D1D5DB" font-family="Avenir Next, Arial" font-size="20">behavior + graph context</text>
  <rect x="660" y="150" width="240" height="120" rx="24" fill="#0B1B26" stroke="#3A5060"/>
  <text x="695" y="205" fill="#F5EFD8" font-family="Avenir Next, Arial" font-size="28" font-weight="700">Fraud model</text>
  <text x="695" y="240" fill="#D1D5DB" font-family="Avenir Next, Arial" font-size="20">LightGBM + CatBoost</text>
  <rect x="960" y="150" width="250" height="120" rx="24" fill="#0B1B26" stroke="#3A5060"/>
  <text x="995" y="205" fill="#F5EFD8" font-family="Avenir Next, Arial" font-size="28" font-weight="700">Calibrated routing</text>
  <text x="995" y="240" fill="#D1D5DB" font-family="Avenir Next, Arial" font-size="20">Approve / Flag / Block</text>
  <path d="M290 210H350" stroke="#6B7280" stroke-width="8" stroke-linecap="round"/>
  <path d="M600 210H660" stroke="#6B7280" stroke-width="8" stroke-linecap="round"/>
  <path d="M900 210H960" stroke="#6B7280" stroke-width="8" stroke-linecap="round"/>
  <rect x="260" y="380" width="300" height="150" rx="24" fill="#0B1B26" stroke="#20475E"/>
  <text x="295" y="440" fill="#F5EFD8" font-family="Avenir Next, Arial" font-size="28" font-weight="700">FastAPI risk API</text>
  <text x="295" y="475" fill="#D1D5DB" font-family="Avenir Next, Arial" font-size="20">/health and /predict</text>
  <text x="295" y="505" fill="#D1D5DB" font-family="Avenir Next, Arial" font-size="20">model bundle served locally</text>
  <rect x="620" y="380" width="300" height="150" rx="24" fill="#0B1B26" stroke="#8B6A00"/>
  <text x="655" y="440" fill="#FFD54A" font-family="Avenir Next, Arial" font-size="28" font-weight="700">Local recovery layer</text>
  <text x="655" y="475" fill="#D1D5DB" font-family="Avenir Next, Arial" font-size="20">richer or faster wording</text>
  <text x="655" y="505" fill="#D1D5DB" font-family="Avenir Next, Arial" font-size="20">English + Bahasa Melayu</text>
  <rect x="980" y="380" width="300" height="150" rx="24" fill="#0B1B26" stroke="#3A5060"/>
  <text x="1015" y="440" fill="#F5EFD8" font-family="Avenir Next, Arial" font-size="28" font-weight="700">Judge-facing demo</text>
  <text x="1015" y="475" fill="#D1D5DB" font-family="Avenir Next, Arial" font-size="20">Streamlit decision console</text>
  <text x="1015" y="505" fill="#D1D5DB" font-family="Avenir Next, Arial" font-size="20">customer recovery panel</text>
  <path d="M1085 270V360" stroke="#6B7280" stroke-width="8" stroke-linecap="round"/>
  <path d="M1085 360H770" stroke="#6B7280" stroke-width="8" stroke-linecap="round"/>
  <path d="M1085 360H1130" stroke="#6B7280" stroke-width="8" stroke-linecap="round"/>
</svg>
